<svg xmlns="http://www.w3.org/2000/svg" xmlns:xlink="http://www.w3.org/1999/xlink" width="180px" height="80px" viewBox="0 0 135 30" version="1.1">
    <!-- Generator: Sketch 56.3 (81716) - https://sketch.com -->
    <title>branding/logo-130x48</title>
    <desc>Created with Sketch.</desc>
    <g id="Prototype" stroke="none" stroke-width="1" fill="none" fill-rule="evenodd">
        <g id="[web-view]-About-Goplay---Download-Goplay" transform="translate(-112.000000, -146.000000)">
            <g id="head" transform="translate(110.000000, 104.000000)">
                <g id="branding/logo-103x48" transform="translate(0.000000, 24.000000)">
                    <g id="goplay_horizontal" transform="translate(2.718447, 17.604167)">
                        <ellipse id="Oval" fill="#DF1995" fill-rule="nonzero" cx="13.6843837" cy="15.8261917" rx="13.6843837" ry="13.6334746"/>
                        <path d="M11.4036531,23.3246028 C10.7412561,23.6140997 9.98029006,23.57339 9.35281867,23.2148885 C8.72534728,22.856387 8.30576741,22.2225997 8.2220339,21.5068061 C8.06238275,19.6208422 7.98255718,17.7462394 7.98255718,15.8261917 C7.98255718,13.9061441 8.06238275,12.065625 8.2220339,10.1455773 C8.3279715,9.44423983 8.75653183,8.83240741 9.38071966,8.49138428 C10.0049075,8.15036116 10.753125,8.11926456 11.4036531,8.40730932 C13.129406,9.21774364 14.8133454,10.0887712 16.4554714,11.0203919 C18.0975975,11.9520127 19.7017114,12.9631621 21.2678131,14.05384 C21.8743476,14.4614654 22.2379158,15.1427262 22.2379158,15.8716367 C22.2379158,16.6005471 21.8743476,17.2818079 21.2678131,17.6894333 C19.7093138,18.7725371 18.1051999,19.7798994 16.4554714,20.7115201 C14.805743,21.6431409 13.1218035,22.5141684 11.4036531,23.3246028 Z" id="Path" fill="#FFFFFF" fill-rule="nonzero"/>
                        <path d="M67.030673,14.2924258 C67.0445047,12.5355322 65.9910338,10.9445866 64.3644237,10.2658713 C62.7378135,9.58715602 60.8607718,9.95532335 59.6137831,11.197673 C58.3667943,12.4400226 57.9972522,14.3100813 58.6785019,15.9306401 C59.3597516,17.5511989 60.956638,18.6007505 62.7200922,18.5869703 C63.8843992,18.6491505 65.0208011,18.2178887 65.8485249,17.3997376 C66.6762486,16.5815864 67.1180906,15.4528567 67.064884,14.2924258 M54.1217377,14.2924258 C54.1217377,9.74793432 57.7252921,6.33956568 62.7200922,6.33956568 C67.7148922,6.33956568 71.3184466,9.82746292 71.3184466,14.2924258 C71.3184466,18.7573888 67.7491032,22.3134534 62.7200922,22.3134534 C57.6910811,22.3134534 54.1217377,18.8255561 54.1217377,14.2924258" id="Shape" fill="#1e2024" fill-rule="nonzero"/>
                        <path d="M47.2795458,15.1217956 C47.2795458,16.9963983 45.3637321,18.5301642 42.934754,18.5301642 C41.7456856,18.6498902 40.564075,18.2415467 39.7048302,17.4139605 C38.8455854,16.5863743 38.3960123,15.4236343 38.4759256,14.2356197 C38.4759256,11.7588718 40.3005101,10.0546875 43.1058088,10.0546875 C45.3865394,10.0546875 47.2795458,11.6111758 47.2795458,13.3721663 L47.2795458,15.1217956 Z M47.4506006,6.27139831 L47.4506006,8.06647246 L47.4506006,8.06647246 C46.0627547,6.81081886 44.2243161,6.16750548 42.3531677,6.28275953 C40.2062064,6.21724627 38.1259272,7.03028648 36.5963509,8.53270917 C35.0667746,10.0351319 34.2212745,12.0959316 34.256574,14.2356197 C34.230486,16.4066404 35.0964589,18.4939011 36.6535126,20.0129783 C38.2105662,21.5320555 40.3233133,22.3508639 42.5014152,22.2793697 C44.316947,22.376856 46.0907035,21.7136569 47.3935824,20.4502119 L47.3935824,20.4502119 L47.3935824,21.995339 C47.3935824,24.0744439 45.5918052,25.5968485 43.2198453,25.5968485 C41.3756104,25.719056 39.5654755,25.058772 38.2364489,23.7790519 L35.4653612,26.4375794 C37.5569228,28.4840379 40.4047359,29.5778062 43.3338818,29.4596663 C48.1918381,29.4596663 51.5217048,26.2103549 51.5217048,21.8817267 L51.5217048,6.27139831 L47.4506006,6.27139831 Z" id="Shape" fill="#1e2024" fill-rule="nonzero"/>
                        <path d="M73.8272503,6.703125 L77.9097581,6.703125 L77.9097581,8.04375 L77.9667764,8.04375 C79.3051107,6.82821635 81.0725569,6.19087096 82.8817509,6.27139831 C87.2072374,6.43367072 90.629781,9.97429639 90.629781,14.2867452 C90.629781,18.5991941 87.2072374,22.1398197 82.8817509,22.3020922 C81.1533934,22.3418996 79.4660384,21.7748376 78.1150239,20.7001589 L78.1150239,20.7001589 L78.1150239,28.3121822 L73.8614612,28.3121822 L73.8272503,6.703125 Z M82.220339,10.0206038 C79.9396084,10.0206038 78.0808129,11.5998146 78.0808129,13.3153602 L78.0808129,15.2354078 C78.0808129,17.0645657 79.9168011,18.5756091 82.2431463,18.5756091 C83.8298528,18.6571057 85.3323213,17.8601107 86.1502343,16.5030667 C86.9681472,15.1460227 86.9681472,13.4501902 86.1502343,12.0931462 C85.3323213,10.7361022 83.8298528,9.9391072 82.2431463,10.0206038 L82.220339,10.0206038 Z" id="Shape" fill="#1e2024" fill-rule="nonzero"/>
                        <polygon id="Path" fill="#1e2024" fill-rule="nonzero" points="93.0195985 0.977065678 97.2731611 0.977065678 97.2731611 21.8703655 93.0195985 21.8703655"/>
                        <path d="M106.430295,12.8268273 C109.22419,12.4519068 110.056656,12.0542638 110.056656,11.2817002 C110.056656,10.2819121 108.996117,9.67976695 107.35399,9.67976695 C105.590729,9.53331826 103.981603,10.6839195 103.556574,12.3951006 L99.5424881,11.5657309 C100.112671,8.47547669 103.305694,6.27139831 107.239954,6.27139831 C111.687379,6.27139831 114.447063,8.54364407 114.447063,12.2246822 L114.447063,21.8703655 L110.615435,21.8703655 L110.615435,20.2116261 L110.615435,20.2116261 C109.319057,21.6650818 107.419316,22.4372588 105.472388,22.3020922 C102.10831,22.3020922 99.7705611,20.4729343 99.7705611,17.7576006 C99.7705611,15.0422669 101.64076,13.4857786 106.430295,12.8268273 Z M110.398766,14.4287606 L110.341748,14.4287606 C109.965427,14.9740996 109.201382,15.292214 107.091706,15.6557733 C104.594306,16.1215837 103.67061,16.5987553 103.67061,17.4962924 C103.67061,18.3938294 104.423252,18.8141949 106.031167,18.8141949 C108.471548,18.8141949 110.364555,17.678072 110.364555,16.235196 L110.398766,14.4287606 Z" id="Shape" fill="#1e2024" fill-rule="nonzero"/>
                        <polygon id="Path" fill="#1e2024" fill-rule="nonzero" points="122.155932 21.0409958 115.108475 6.703125 119.795376 6.703125 124.425259 16.5987553 124.425259 16.5987553 128.98672 6.703125 133.696429 6.703125 123.159454 28.2894597 118.472552 28.2894597"/>
                    </g>
                </g>
            </g>
        </g>
    </g>
</svg>